<svg width="140" height="140" viewBox="0 0 140 140" xmlns="http://www.w3.org/2000/svg" role="img" aria-label="Feenchen Glühwürmchen-Logo für die Mini-Apps">
  <defs>
    <radialGradient id="glow" cx="50%" cy="50%" r="50%">
      <stop offset="0%" stop-color="#fff3c4" stop-opacity="0.95"/>
      <stop offset="45%" stop-color="#f7e4b5" stop-opacity="0.55"/>
      <stop offset="100%" stop-color="#f7e4b5" stop-opacity="0"/>
    </radialGradient>
    <linearGradient id="body" x1="0%" y1="0%" x2="100%" y2="100%">
      <stop offset="0%" stop-color="#caa6ff"/>
      <stop offset="100%" stop-color="#a682e0"/>
    </linearGradient>
    <linearGradient id="wing" x1="0%" y1="0%" x2="100%" y2="100%">
      <stop offset="0%" stop-color="#b5f5e3" stop-opacity="0.85"/>
      <stop offset="100%" stop-color="#e8fbf3" stop-opacity="0.55"/>
    </linearGradient>
  </defs>

  <circle cx="80" cy="82" r="34" fill="url(#glow)"/>

  <circle cx="34" cy="40" r="2" fill="#f7e4b5" opacity="0.9"/>
  <circle cx="46" cy="30" r="1.4" fill="#caa6ff" opacity="0.8"/>
  <circle cx="26" cy="58" r="1.6" fill="#b5f5e3" opacity="0.85"/>

  <ellipse cx="66" cy="66" rx="20" ry="12" fill="url(#wing)" transform="rotate(-25 66 66)"/>
  <ellipse cx="72" cy="72" rx="22" ry="13" fill="url(#wing)" transform="rotate(-10 72 72)"/>

  <path d="M74 60 C 70 50, 66 46, 62 40" stroke="#7a5c93" stroke-width="1.6" fill="none" stroke-linecap="round"/>
  <path d="M80 60 C 82 50, 86 46, 90 40" stroke="#7a5c93" stroke-width="1.6" fill="none" stroke-linecap="round"/>
  <circle cx="62" cy="40" r="1.8" fill="#caa6ff"/>
  <circle cx="90" cy="40" r="1.8" fill="#caa6ff"/>

  <circle cx="77" cy="64" r="7" fill="url(#body)"/>
  <ellipse cx="80" cy="80" rx="10" ry="16" fill="url(#body)"/>

  <ellipse cx="80" cy="96" rx="7" ry="8" fill="#fff3c4"/>
  <ellipse cx="80" cy="96" rx="4.2" ry="5" fill="#ffe066"/>

  <path d="M72 78 C 66 80, 62 84, 58 88" stroke="#7a5c93" stroke-width="1.3" fill="none" stroke-linecap="round"/>
  <path d="M88 78 C 94 80, 98 84, 102 88" stroke="#7a5c93" stroke-width="1.3" fill="none" stroke-linecap="round"/>
</svg>
